<?xml version="1.0" encoding="UTF-8" standalone="no"?>
<!-- Created with Inkscape (http://www.inkscape.org/) -->

<svg
   width="210mm"
   height="297mm"
   viewBox="0 0 210 297"
   version="1.1"
   id="svg1"
   inkscape:version="1.4.2 (1:1.4.2+202505120738+ebf0e940d0)"
   sodipodi:docname="esp_pin_template.svg"
   xmlns:inkscape="http://www.inkscape.org/namespaces/inkscape"
   xmlns:sodipodi="http://sodipodi.sourceforge.net/DTD/sodipodi-0.dtd"
   xmlns="http://www.w3.org/2000/svg"
   xmlns:svg="http://www.w3.org/2000/svg">
  <sodipodi:namedview
     id="namedview1"
     pagecolor="#ffffff"
     bordercolor="#666666"
     borderopacity="1.0"
     inkscape:showpageshadow="2"
     inkscape:pageopacity="0.0"
     inkscape:pagecheckerboard="0"
     inkscape:deskcolor="#d1d1d1"
     inkscape:document-units="mm"
     inkscape:zoom="1.2899551"
     inkscape:cx="422.88294"
     inkscape:cy="782.97299"
     inkscape:current-layer="layer1"
     showgrid="false" />
  <defs
     id="defs1">
    <inkscape:path-effect
       effect="tiling"
       id="path-effect4"
       is_visible="true"
       lpeversion="1.3.1"
       unit="px"
       seed="1;1"
       lpesatellites=""
       num_rows="1"
       num_cols="4"
       gapx="-1.9"
       gapy="0"
       offset="0"
       offset_type="false"
       scale="0"
       rotate="0"
       mirrorrowsx="false"
       mirrorrowsy="false"
       mirrorcolsx="false"
       mirrorcolsy="false"
       mirrortrans="false"
       shrink_interp="false"
       split_items="false"
       link_styles="false"
       interpolate_scalex="false"
       interpolate_scaley="true"
       interpolate_rotatex="false"
       interpolate_rotatey="true"
       random_scale="false"
       random_rotate="false"
       random_gap_y="false"
       random_gap_x="false"
       transformorigin="" />
    <inkscape:path-effect
       effect="tiling"
       id="path-effect1"
       is_visible="true"
       lpeversion="1.3.1"
       unit="px"
       seed="1;1"
       lpesatellites=""
       num_rows="1"
       num_cols="20"
       gapx="0"
       gapy="0"
       offset="0"
       offset_type="false"
       scale="0"
       rotate="0"
       mirrorrowsx="false"
       mirrorrowsy="false"
       mirrorcolsx="false"
       mirrorcolsy="false"
       mirrortrans="false"
       shrink_interp="false"
       split_items="false"
       link_styles="false"
       interpolate_scalex="false"
       interpolate_scaley="true"
       interpolate_rotatex="false"
       interpolate_rotatey="true"
       random_scale="false"
       random_rotate="false"
       random_gap_y="false"
       random_gap_x="false"
       transformorigin="" />
  </defs>
  <g
     inkscape:label="Layer 1"
     inkscape:groupmode="layer"
     id="layer1">
    <path
       d="m 10.085644,171.06538 v 60 h 0.499711 v -60 z m 2.499711,0 v 60 h 0.499711 v -60 z m 2.499711,0 v 60 h 0.499711 v -60 z m 2.499711,0 v 60 h 0.499711 v -60 z m 2.499711,0 v 60 h 0.499711 v -60 z m 2.499711,0 v 60 h 0.499711 v -60 z m 2.499711,0 v 60 h 0.499711 v -60 z m 2.499711,0 v 60 h 0.499711 v -60 z m 2.499711,0 v 60 h 0.499711 v -60 z m 2.499711,0 v 60 h 0.499711 v -60 z m 2.499711,0 v 60 h 0.499711 v -60 z m 2.499711,0 v 60 h 0.499711 v -60 z m 2.499711,0 v 60 h 0.499711 v -60 z m 2.499711,0 v 60 h 0.499711 v -60 z m 2.499711,0 v 60 h 0.499711 v -60 z m 2.499711,0 v 60 h 0.499711 v -60 z m 2.499711,0 v 60 h 0.499711 v -60 z m 2.499711,0 v 60 h 0.499711 v -60 z m 2.499711,0 v 60 h 0.499711 v -60 z m 2.499711,-5.29167 v 70.05417 h 0.499711 v -70.05417 z m -0.003,5.29167 v 60 h 0.499711 v -60 z m 2.499711,0 v 60 h 0.499711 v -60 z m 2.499711,0 v 60 h 0.499711 v -60 z m 2.499711,0 v 60 H 65.576 v -60 z m 2.499711,0 v 60 h 0.499711 v -60 z m 2.499711,0 v 60 h 0.499711 v -60 z m 2.499711,0 v 60 h 0.499711 v -60 z m 2.499711,0 v 60 h 0.499711 v -60 z m 2.499711,0 v 60 h 0.499711 v -60 z m 2.499711,0 v 60 h 0.499711 v -60 z m 2.499711,0 v 60 h 0.499711 v -60 z m 2.499711,0 v 60 h 0.499711 v -60 z m 2.499711,0 v 60 h 0.499711 v -60 z m 2.499711,0 v 60 h 0.499711 v -60 z m 2.499711,0 v 60 h 0.499711 v -60 z m 2.499711,0 v 60 h 0.499711 v -60 z m 2.499711,0 v 60 h 0.499711 v -60 z m 2.499708,0 v 60 h 0.49971 v -60 z m 2.49971,0 v 60 h 0.49971 v -60 z m 2.49971,-5.29167 v 70.05417 h 0.49972 v -70.05417 z m -0.003,5.29167 v 60 h 0.49971 v -60 z m 2.49971,0 v 60 h 0.49971 v -60 z m 2.49971,0 v 60 h 0.49971 v -60 z m 2.49971,0 v 60 h 0.49971 v -60 z m 2.49971,0 v 60 h 0.49971 v -60 z m 2.49971,0 v 60 h 0.49971 v -60 z m 2.49971,0 v 60 h 0.49971 v -60 z m 2.49971,0 v 60 h 0.49972 v -60 z m 2.49972,0 v 60 h 0.49971 v -60 z m 2.49971,0 v 60 h 0.49971 v -60 z m 2.49971,0 v 60 h 0.49971 v -60 z m 2.49971,0 v 60 h 0.49971 v -60 z m 2.49971,0 v 60 h 0.49971 v -60 z m 2.49971,0 v 60 h 0.49971 v -60 z m 2.49971,0 v 60 h 0.49971 v -60 z m 2.49971,0 v 60 h 0.49971 v -60 z m 2.49971,0 v 60 h 0.49971 v -60 z m 2.49971,0 v 60 h 0.49972 v -60 z m 2.49972,0 v 60 h 0.49971 v -60 z m 2.49971,-5.29167 v 70.05417 h 0.49971 v -70.05417 z m -0.003,5.29167 v 60 h 0.49971 v -60 z m 2.49971,0 v 60 h 0.49971 v -60 z m 2.49971,0 v 60 h 0.49971 v -60 z m 2.49971,0 v 60 h 0.49971 v -60 z m 2.49971,0 v 60 h 0.49971 v -60 z m 2.49971,0 v 60 h 0.49972 v -60 z m 2.49972,0 v 60 h 0.49971 v -60 z m 2.49971,0 v 60 h 0.49971 v -60 z m 2.49971,0 v 60 h 0.49971 v -60 z m 2.49971,0 v 60 h 0.49971 v -60 z m 2.49971,0 v 60 h 0.49971 v -60 z m 2.49971,0 v 60 h 0.49971 v -60 z m 2.49971,0 v 60 h 0.49971 v -60 z m 2.49971,0 v 60 h 0.49971 v -60 z m 2.49971,0 v 60 h 0.49971 v -60 z m 2.49971,0 v 60 h 0.49972 v -60 z m 2.49972,0 v 60 h 0.49971 v -60 z m 2.49971,0 v 60 h 0.49971 v -60 z m 2.49971,0 v 60 h 0.49971 v -60 z m 2.49971,-5.29167 v 70.05417 h 0.49971 v -70.05417 z"
       style="vector-effect:non-scaling-stroke;fill:#000000;stroke:none;stroke-width:0.526105;stroke-linecap:round;stroke-linejoin:round;stroke-dashoffset:4586.26;-inkscape-stroke:hairline;paint-order:stroke fill markers"
       id="path1"
       sodipodi:nodetypes="cccccccccccccccccccccccccccccccccccccccccccccccccccccccccccccccccccccccccccccccccccccccccccccccccccc"
       inkscape:path-effect="#path-effect4"
       inkscape:original-d="m 10.085644,171.06538 v 60 h 0.499711 v -60 z m 2.499711,0 v 60 h 0.499711 v -60 z m 2.499711,0 v 60 h 0.499711 v -60 z m 2.499711,0 v 60 h 0.499711 v -60 z m 2.499711,0 v 60 h 0.499711 v -60 z m 2.499711,0 v 60 h 0.499711 v -60 z m 2.499711,0 v 60 h 0.499711 v -60 z m 2.499711,0 v 60 h 0.499711 v -60 z m 2.499711,0 v 60 h 0.499711 v -60 z m 2.499711,0 v 60 h 0.499711 v -60 z m 2.499711,0 v 60 h 0.499711 v -60 z m 2.499711,0 v 60 h 0.499711 v -60 z m 2.499711,0 v 60 h 0.499711 v -60 z m 2.499711,0 v 60 h 0.499711 v -60 z m 2.499711,0 v 60 h 0.499711 v -60 z m 2.499711,0 v 60 h 0.499711 v -60 z m 2.499711,0 v 60 h 0.499711 v -60 z m 2.499711,0 v 60 h 0.499711 v -60 z m 2.499711,0 v 60 h 0.499711 v -60 z m 2.499711,-5.29167 v 70.05417 h 0.499711 v -70.05417 z"
       transform="matrix(1,0,0,0.84684117,0,25.389708)" />
  </g>
</svg>
