<?xml version="1.0" encoding="UTF-8" standalone="no"?>
<!-- Created with Inkscape (http://www.inkscape.org/) -->

<svg
   width="210mm"
   height="297mm"
   viewBox="0 0 210 297"
   version="1.1"
   id="svg1"
   inkscape:version="1.4.2 (1:1.4.2+202505120738+ebf0e940d0)"
   sodipodi:docname="esp_pin_template.svg"
   xmlns:inkscape="http://www.inkscape.org/namespaces/inkscape"
   xmlns:sodipodi="http://sodipodi.sourceforge.net/DTD/sodipodi-0.dtd"
   xmlns="http://www.w3.org/2000/svg"
   xmlns:svg="http://www.w3.org/2000/svg">
  <sodipodi:namedview
     id="namedview1"
     pagecolor="#ffffff"
     bordercolor="#666666"
     borderopacity="1.0"
     inkscape:showpageshadow="2"
     inkscape:pageopacity="0.0"
     inkscape:pagecheckerboard="0"
     inkscape:deskcolor="#d1d1d1"
     inkscape:document-units="mm"
     inkscape:zoom="1.824272"
     inkscape:cx="391.66308"
     inkscape:cy="464.2948"
     inkscape:current-layer="layer1" />
  <defs
     id="defs1" />
  <g
     inkscape:label="Layer 1"
     inkscape:groupmode="layer"
     id="layer1">
    <path
       id="path20"
       style="opacity:1;vector-effect:non-scaling-stroke;stroke:#000000;stroke-width:0.40989;stroke-linecap:round;stroke-linejoin:round;stroke-dashoffset:4586.26;-inkscape-stroke:hairline;paint-order:stroke fill markers;fill:none"
       d="M 31.176908 96.299548 L 31.176908 96.799259 L 31.176908 133.21926 L 31.676619 133.21926 L 31.676619 96.799259 L 33.77675 96.799259 L 33.77675 133.21926 L 34.276978 133.21926 L 34.276978 96.799259 L 36.376591 96.799259 L 36.376591 133.21926 L 36.876819 133.21926 L 36.876819 96.799259 L 38.976949 96.799259 L 38.976949 133.21926 L 39.47666 133.21926 L 39.47666 96.799259 L 41.57679 96.799259 L 41.57679 133.21926 L 42.077018 133.21926 L 42.077018 96.799259 L 44.176632 96.799259 L 44.176632 133.21926 L 44.67686 133.21926 L 44.67686 96.799259 L 46.77699 96.799259 L 46.77699 133.21926 L 47.276701 133.21926 L 47.276701 96.799259 L 49.376831 96.799259 L 49.376831 133.21926 L 49.876542 133.21926 L 49.876542 96.799259 L 51.976672 96.799259 L 51.976672 133.21926 L 52.4769 133.21926 L 52.4769 96.799259 L 54.57703 96.799259 L 54.57703 133.21926 L 55.076742 133.21926 L 55.076742 96.799259 L 57.176872 96.799259 L 57.176872 133.21926 L 57.676583 133.21926 L 57.676583 96.799259 L 59.776713 96.799259 L 59.776713 133.21926 L 60.276941 133.21926 L 60.276941 96.799259 L 62.376554 96.799259 L 62.376554 133.21926 L 62.876782 133.21926 L 62.876782 96.799259 L 64.976912 96.799259 L 64.976912 133.21926 L 65.476624 133.21926 L 65.476624 96.799259 L 67.576754 96.799259 L 67.576754 133.21926 L 68.076982 133.21926 L 68.076982 96.799259 L 70.176595 96.799259 L 70.176595 133.21926 L 70.676823 133.21926 L 70.676823 96.799259 L 72.776953 96.799259 L 72.776953 133.21926 L 73.276664 133.21926 L 73.276664 96.799259 L 75.376794 96.799259 L 75.376794 133.21926 L 75.877022 133.21926 L 75.877022 96.799259 L 75.877022 96.299548 L 75.376794 96.299548 L 73.276664 96.299548 L 72.776953 96.299548 L 70.676823 96.299548 L 70.176595 96.299548 L 68.076982 96.299548 L 67.576754 96.299548 L 65.476624 96.299548 L 64.976912 96.299548 L 62.876782 96.299548 L 62.376554 96.299548 L 60.276941 96.299548 L 59.776713 96.299548 L 57.676583 96.299548 L 57.176872 96.299548 L 55.076742 96.299548 L 54.57703 96.299548 L 52.4769 96.299548 L 51.976672 96.299548 L 49.876542 96.299548 L 49.376831 96.299548 L 47.276701 96.299548 L 46.77699 96.299548 L 44.67686 96.299548 L 44.176632 96.299548 L 42.077018 96.299548 L 41.57679 96.299548 L 39.47666 96.299548 L 38.976949 96.299548 L 36.876819 96.299548 L 36.376591 96.299548 L 34.276978 96.299548 L 33.77675 96.299548 L 31.676619 96.299548 L 31.176908 96.299548 z " />
  </g>
</svg>
